<svg width="60" height="60" xmlns="http://www.w3.org/2000/svg">

 <title/>
 <g>
  <title>background</title>
  <rect fill="none" id="canvas_background" height="402" width="582" y="-1" x="-1"/>
 </g>
 <g>
  <title>Layer 1</title>
  <path fill="#e82e5f" id="svg_6" d="m29.333322,15.44572a14.381,14.381 0 1 0 14.381,14.38a14.4,14.4 0 0 0 -14.381,-14.38zm-6.729,11.833a1.847,1.847 0 1 1 1.847,1.847a1.847,1.847 0 0 1 -1.847,-1.847zm10.447,10.388a0.75,0.75 0 0 1 -0.75,-0.75c0,-0.921 -1.387,-1.729 -2.968,-1.729s-2.967,0.808 -2.967,1.729a0.75,0.75 0 0 1 -1.5,0c0,-1.811 1.962,-3.229 4.467,-3.229s4.468,1.418 4.468,3.229a0.75,0.75 0 0 1 -0.75,0.75zm1.164,-8.541a1.847,1.847 0 1 1 1.846,-1.847a1.847,1.847 0 0 1 -1.846,1.847z" class="c"/>
 </g>
</svg>