<svg width="48.00000000000001" height="48.00000000000001" xmlns="http://www.w3.org/2000/svg">

 <g>
  <title>background</title>
  <rect fill="none" id="canvas_background" height="402" width="582" y="-1" x="-1"/>
 </g>
 <g>
  <title fill="#ffffff">Layer 1</title>
  <path fill="#ffffff" id="svg_1" fill-rule="evenodd" d="m43,40l-38,0c-2.209,0 -4,-1.791 -4,-4l0,-24c0,-2.209 1.791,-4 4,-4l38,0c2.209,0 4,1.791 4,4l0,24c0,2.209 -1.791,4 -4,4zm-40,-19l42,0l0,-4l-42,0l0,4zm42,-9c0,-1.104 -0.896,-2 -2,-2l-38,0c-1.104,0 -2,0.896 -2,2l0,3l42,0l0,-3zm0,11l-42,0l0,13c0,1.104 0.896,2 2,2l38,0c1.104,0 2,-0.896 2,-2l0,-13zm-19,6l-4,0c-0.553,0 -1,-0.447 -1,-1c0,-0.552 0.447,-1 1,-1l4,0c0.553,0 1,0.448 1,1c0,0.553 -0.447,1 -1,1zm-9,0l-9,0c-0.553,0 -1,-0.447 -1,-1c0,-0.552 0.447,-1 1,-1l9,0c0.553,0 1,0.448 1,1c0,0.553 -0.447,1 -1,1zm-9,3l6,0c0.553,0 1,0.448 1,1c0,0.553 -0.447,1 -1,1l-6,0c-0.553,0 -1,-0.447 -1,-1c0,-0.552 0.447,-1 1,-1z" clip-rule="evenodd"/>
 </g>
</svg>