<svg width="512" height="512" xmlns="http://www.w3.org/2000/svg">

 <g>
  <title>background</title>
  <rect fill="none" id="canvas_background" height="402" width="582" y="-1" x="-1"/>
 </g>
 <g>
  <title fill="#ffffff">Layer 1</title>
  <path fill="#ffffff" id="svg_1" d="m256,54.872c-83.352,0 -151.162,67.811 -151.162,151.162c0,134.032 136.018,239.518 141.809,243.945l9.354,7.148l9.348,-7.148c5.791,-4.428 141.814,-109.913 141.814,-243.945c-0.001,-83.352 -67.81,-151.162 -151.163,-151.162zm-0.011,362.891c-29.792,-25.637 -120.352,-111.815 -120.352,-211.729c0,-66.37 53.987,-120.363 120.363,-120.363c66.364,0 120.363,53.994 120.363,120.363c0.001,99.7 -90.595,186.052 -120.374,211.729z"/>
  <path fill="#ffffff" id="svg_3" d="m253.665,271.729c-38.672,0 -70.135,-31.459 -70.135,-70.129c0,-38.672 31.462,-70.135 70.135,-70.135c38.672,0 70.134,31.462 70.134,70.135c0,38.67 -31.462,70.129 -70.134,70.129zm0,-117.263c-25.99,0 -47.135,21.145 -47.135,47.135c0,25.987 21.145,47.129 47.135,47.129c25.989,0 47.134,-21.142 47.134,-47.129c0,-25.991 -21.144,-47.135 -47.134,-47.135z"/>
 </g>
</svg>