<svg width="24" height="24" xmlns="http://www.w3.org/2000/svg" clip-rule="evenodd">

 <g>
  <title>background</title>
  <rect fill="none" id="canvas_background" height="402" width="582" y="-1" x="-1"/>
 </g>
 <g>
  <title>Layer 1</title>
  <path fill="#ffffff" stroke="#ffffff" id="svg_1" d="m16.075,5.237c-0.246,-0.656 -0.738,-1.206 -1.393,-1.518c-0.958,-0.456 -2.093,-0.32 -2.916,0.349c-1.775,1.441 -3.75,3.046 -4.463,3.626c-0.045,0.036 -0.101,0.056 -0.158,0.056c-0.045,0 -0.094,0 -0.145,0c-0.729,0 -1.429,0.29 -1.945,0.805c-0.515,0.516 -0.805,1.216 -0.805,1.945c0,0.941 0,2.059 0,3c0,0.729 0.29,1.429 0.805,1.945c0.293,0.292 0.768,0.292 1.061,0c0.293,-0.293 0.293,-0.768 0,-1.061c-0.234,-0.235 -0.366,-0.552 -0.366,-0.884c0,-0.941 0,-2.059 0,-3c0,-0.332 0.132,-0.649 0.366,-0.884c0.235,-0.234 0.552,-0.366 0.884,-0.366c0.051,0 0.1,0 0.145,0c0.402,0 0.792,-0.138 1.104,-0.392c0.713,-0.579 2.688,-2.184 4.463,-3.626c0.374,-0.304 0.89,-0.366 1.325,-0.159c0.298,0.142 0.522,0.392 0.634,0.69c0.145,0.388 0.578,0.585 0.965,0.439c0.388,-0.145 0.584,-0.578 0.439,-0.965z"/>
  <path fill="#ffffff" stroke="#ffffff" id="svg_2" d="m8.104,16.957l-3.574,3.573c-0.292,0.293 -0.768,0.293 -1.06,0c-0.293,-0.292 -0.293,-0.768 0,-1.06l16,-16c0.292,-0.293 0.768,-0.293 1.06,0c0.293,0.292 0.293,0.768 0,1.06l-4.28,4.281l0,8.987c0,1.061 -0.61,2.027 -1.568,2.483c-0.958,0.456 -2.093,0.32 -2.916,-0.349l-3.662,-2.975zm6.646,-6.646l-5.58,5.58l3.542,2.877c0.374,0.304 0.89,0.366 1.325,0.159c0.436,-0.208 0.713,-0.647 0.713,-1.129l0,-7.487z"/>
 </g>
</svg>