<svg width="32" height="32" xmlns="http://www.w3.org/2000/svg">

 <g>
  <title>background</title>
  <rect fill="none" id="canvas_background" height="402" width="582" y="-1" x="-1"/>
 </g>
 <g>
  <title>Layer 1</title>
  <path fill="#ffffff" id="svg_1" d="m2.605,10.653324c1.529,-3.173 5.093,-5.816 8.572,-7.331l-3.311,-1.146c-0.597,-0.206 -0.913,-0.858 -0.707,-1.454c0.206,-0.597 0.858,-0.914 1.454,-0.707l6.48,2.243c0.575,0.198 0.897,0.903 0.707,1.453l-2.242,6.481c-0.164,0.473 -0.606,0.77 -1.08,0.77c-0.124,0 -0.25,-0.021 -0.374,-0.063c-0.596,-0.206 -0.912,-0.857 -0.706,-1.454l1.509,-4.362c-3.32,1.256 -6.88,3.735 -8.242,6.562c-1.075,2.23 -1.461,4.71 -1.119,7.172c0.46,3.326 2.189,6.273 4.868,8.3c2.677,2.024 5.985,2.89 9.311,2.426c3.326,-0.461 6.274,-2.188 8.301,-4.868c2.024,-2.677 2.887,-5.979 2.429,-9.304c-0.003,-0.021 -0.005,-0.04 -0.007,-0.06c-0.057,-0.602 0.348,-1.249 0.945,-1.344c0.621,-0.104 1.217,0.418 1.328,1.03c0.012,0.073 0.02,0.147 0.02,0.222c0.492,3.874 -0.531,7.715 -2.891,10.836c-2.396,3.164 -5.879,5.207 -9.813,5.752c-0.691,0.097 -1.383,0.145 -2.07,0.145c-3.213,0 -6.325,-1.039 -8.932,-3.012c-3.165,-2.395 -5.208,-5.877 -5.752,-9.809c-0.406,-2.908 0.052,-5.84 1.322,-8.478z"/>
 </g>
</svg>